<?xml version="1.0" standalone="no"?>
<!DOCTYPE svg PUBLIC "-//W3C//DTD SVG 20010904//EN"
 "http://www.w3.org/TR/2001/REC-SVG-20010904/DTD/svg10.dtd">
<svg version="1.0" xmlns="http://www.w3.org/2000/svg"
 width="989.000000pt" height="989.000000pt" viewBox="0 0 989.000000 989.000000"
 preserveAspectRatio="xMidYMid meet">
<metadata>
Created by potrace 1.11, written by Peter Selinger 2001-2013
</metadata>
<g transform="translate(0.000000,989.000000) scale(0.100000,-0.100000)"
fill="#000000" stroke="none">
<path d="M4650 9279 c-885 -62 -1719 -388 -2429 -949 l-96 -75 143 -5 c127 -4
145 -7 158 -24 11 -15 14 -60 14 -198 0 -98 1 -178 3 -178 1 0 26 9 55 20 175
67 413 17 553 -117 208 -198 212 -608 8 -811 -139 -139 -398 -192 -578 -119
-57 23 -60 23 -75 5 -14 -16 -33 -18 -175 -18 -132 0 -162 3 -175 16 -14 14
-16 89 -16 680 0 365 -3 664 -8 664 -12 0 -322 -315 -399 -405 -575 -674 -919
-1478 -1020 -2387 -21 -190 -24 -646 -5 -828 60 -581 204 -1075 456 -1575 289
-571 672 -1041 1174 -1443 678 -542 1469 -857 2337 -932 155 -13 556 -13 710
0 1048 90 2012 529 2730 1245 344 343 603 699 821 1130 253 500 396 995 456
1575 27 265 14 734 -28 1025 -100 695 -380 1384 -791 1947 -525 719 -1277
1263 -2140 1547 -527 173 -1133 249 -1683 210z m-741 -1403 c123 -34 221 -107
270 -204 45 -88 51 -146 51 -499 0 -288 -2 -334 -16 -347 -23 -23 -315 -23
-338 0 -15 14 -21 13 -73 -6 -114 -42 -298 -36 -408 14 -72 33 -121 80 -158
150 -29 56 -31 69 -32 156 0 84 3 102 28 152 31 63 66 97 138 134 80 40 160
54 318 54 l143 0 -14 23 c-24 36 -76 57 -144 57 -68 0 -172 -29 -219 -60 -33
-22 -66 -25 -96 -10 -22 12 -119 199 -119 230 0 41 23 63 103 100 72 33 165
60 262 74 55 8 249 -4 304 -18z m1044 14 c32 -5 83 -20 113 -34 30 -14 54 -21
54 -16 0 5 7 16 16 24 23 23 315 23 338 0 14 -14 16 -72 16 -492 0 -524 -3
-549 -61 -668 -78 -158 -235 -245 -469 -260 -174 -12 -363 22 -493 87 -118 60
-122 87 -41 233 31 56 62 104 68 108 24 16 68 7 128 -26 89 -49 175 -69 274
-64 92 5 136 24 172 78 12 18 21 35 19 36 -2 2 -27 -5 -56 -16 -74 -29 -208
-36 -299 -16 -199 42 -333 156 -393 333 -33 96 -33 258 0 356 82 244 335 383
614 337z m1260 0 c32 -5 83 -20 113 -34 30 -14 54 -21 54 -16 0 5 7 16 16 24
23 23 315 23 338 0 14 -14 16 -72 16 -492 0 -524 -3 -549 -61 -668 -78 -158
-235 -245 -469 -260 -174 -12 -363 22 -493 87 -118 60 -122 87 -41 233 31 56
62 104 68 108 24 16 68 7 128 -26 89 -49 175 -69 274 -64 92 5 136 24 172 78
12 18 21 35 19 36 -2 2 -27 -5 -56 -16 -74 -29 -208 -36 -299 -16 -199 42
-333 156 -393 333 -33 96 -33 258 0 356 82 244 335 383 614 337z m926 -19 c10
-6 62 -120 126 -275 60 -146 112 -262 116 -258 3 4 55 124 114 267 59 143 113
263 119 267 6 4 82 8 168 8 172 0 188 -5 188 -59 0 -26 -413 -1009 -478 -1136
-81 -161 -223 -245 -411 -245 -118 1 -270 51 -305 102 -25 36 -20 61 39 178
67 133 76 138 167 91 81 -41 115 -41 158 3 l33 35 -207 480 c-113 265 -206
490 -206 500 0 46 21 51 196 51 91 0 173 -4 183 -9z m-3686 -2210 c87 -23 167
-56 179 -74 18 -28 5 -79 -42 -175 -64 -131 -65 -131 -218 -77 -85 30 -203 36
-248 12 -26 -14 -27 -15 -8 -25 11 -6 60 -18 110 -27 280 -50 366 -91 420
-202 26 -51 29 -69 29 -148 -1 -81 -4 -96 -32 -151 -66 -127 -203 -197 -414
-211 -222 -14 -505 60 -533 139 -8 23 -2 45 39 134 27 59 55 113 63 120 19 20
66 17 110 -5 72 -37 184 -65 262 -65 81 0 138 18 107 36 -9 5 -78 20 -154 33
-244 43 -326 86 -379 200 -32 67 -34 217 -5 282 40 87 136 164 251 202 110 35
328 36 463 2z m997 4 c251 -76 393 -267 393 -530 1 -221 -95 -387 -279 -482
-238 -124 -563 -83 -739 92 -203 203 -202 580 2 780 67 67 188 129 288 150 87
18 258 13 335 -10z m1099 1 c123 -34 221 -107 270 -204 45 -88 51 -146 51
-499 0 -288 -2 -334 -16 -347 -23 -23 -315 -23 -338 0 -15 14 -21 13 -73 -6
-114 -42 -298 -36 -408 14 -72 33 -121 80 -158 150 -29 56 -31 69 -32 156 0
84 3 102 28 152 31 63 66 97 138 134 80 40 160 54 318 54 l143 0 -14 23 c-24
36 -76 57 -144 57 -68 0 -172 -29 -219 -60 -33 -22 -66 -25 -96 -10 -22 12
-119 199 -119 230 0 41 23 63 103 100 72 33 165 60 262 74 55 8 249 -4 304
-18z m1201 14 c153 -25 300 -131 366 -264 110 -226 72 -525 -87 -684 -135
-135 -378 -188 -561 -124 l-58 20 0 -169 c0 -223 13 -209 -200 -209 -147 0
-162 2 -180 20 -20 20 -20 33 -20 690 0 657 0 670 20 690 18 18 33 20 175 20
141 0 157 -2 172 -19 15 -18 19 -19 46 -5 73 38 210 52 327 34z m-1782 -1531
c155 -415 390 -1007 407 -1027 19 -22 32 -25 155 -33 74 -5 178 -13 230 -18
52 -5 263 -22 468 -38 205 -15 378 -31 385 -35 17 -10 -17 -44 -163 -162 -528
-427 -771 -631 -777 -655 -4 -15 5 -71 21 -136 89 -357 256 -1068 252 -1072
-9 -9 -115 53 -378 224 -366 237 -618 397 -647 412 -13 7 -35 11 -50 9 -21 -3
-513 -301 -901 -545 -111 -70 -160 -96 -167 -90 -2 3 54 229 126 504 71 274
141 542 155 596 20 77 23 102 14 121 -6 14 -191 177 -412 363 -453 382 -526
448 -511 461 6 5 145 17 310 26 165 10 403 24 528 32 125 8 257 14 292 14 82
0 110 13 134 64 11 23 109 259 219 526 255 616 240 582 254 578 7 -3 32 -56
56 -119z"/>
<path d="M3645 7203 c-11 -3 -28 -12 -37 -21 -54 -47 24 -104 118 -86 43 8
114 67 114 95 0 17 -8 19 -87 18 -49 -1 -97 -4 -108 -6z"/>
<path d="M4855 7549 c-79 -18 -145 -97 -145 -173 0 -135 163 -225 290 -161 40
21 87 77 98 117 24 88 -36 185 -132 213 -55 17 -54 17 -111 4z"/>
<path d="M6115 7549 c-79 -18 -145 -97 -145 -173 0 -135 163 -225 290 -161 40
21 87 77 98 117 24 88 -36 185 -132 213 -55 17 -54 17 -111 4z"/>
<path d="M4207 5336 c-97 -35 -146 -119 -134 -232 17 -168 202 -241 316 -124
110 114 61 322 -85 359 -52 13 -50 13 -97 -3z"/>
<path d="M5285 4993 c-11 -3 -28 -12 -37 -21 -54 -47 24 -104 118 -86 43 8
114 67 114 95 0 17 -8 19 -87 18 -49 -1 -97 -4 -108 -6z"/>
<path d="M6553 5340 c-142 -34 -199 -234 -99 -348 32 -36 96 -71 131 -72 40 0
96 22 130 51 73 65 88 207 30 290 -45 64 -123 96 -192 79z"/>
<path d="M2583 7550 c-142 -34 -199 -234 -99 -348 32 -36 96 -71 131 -72 40 0
96 22 130 51 73 65 88 207 30 290 -45 64 -123 96 -192 79z"/>
</g>
</svg>
